<?xml version="1.0" standalne="no"?>
<!DOCTYPE svg PUBLIC "-//W3C//DTD SVG 20010904//EN"
 "http://www.w3.org/TR/2001/REC-SVG-20010904/DTD/svg10.dtd">
<svg version="1.0"
 width="510.000000pt" height="52.000000pt" viewBox="0 0 510.000000 512.000000"
 preserveAspectRatio="xMidYMid meet">

<g transform="translate(0.000000,512.000000) scale(0.100000,-0.100000)"
fill="#000000" stroke="none">
<path d="M2365 5110 c-262 -57 -448 -268 -463 -527 -10 -184 41 -318 167 -443
123 -122 238 -170 406 -170 153 0 279 48 387 148 117 108 177 235 185 392 9
170 -46 318 -162 436 -108 109 -231 164 -385 169 -52 2 -113 0 -135 -5z"/>
<path d="M3785 4494 c-120 -29 -260 -116 -344 -215 -52 -61 -100 -150 -128
-234 -33 -102 -37 -264 -9 -365 61 -221 225 -396 440 -467 70 -23 97 -27 206
-27 109 0 136 4 206 27 210 70 382 253 440 467 23 87 23 244 1 330 -62 237
-256 430 -488 485 -80 18 -244 18 -324 -1z"/>
<path d="M867 4395 c-167 -46 -299 -178 -342 -340 -42 -165 -1 -324 117 -451
186 -198 490 -203 682 -10 263 264 141 707 -221 801 -69 18 -171 18 -236 0z"/>
<path d="M4470 2943 c-227 -38 -416 -230 -452 -458 -55 -355 257 -669 613
-617 224 32 407 205 454 427 8 39 15 88 15 110 0 66 -28 176 -62 245 -42 87
-151 196 -238 238 -100 49 -233 71 -330 55z"/>
<path d="M253 2811 c-64 -24 -97 -46 -150 -104 -53 -57 -78 -107 -93 -184 -32
-164 55 -335 209 -411 50 -24 67 -27 161 -27 95 0 111 3 162 28 79 39 143 104
181 185 28 60 32 77 32 157 0 80 -4 97 -32 157 -38 81 -102 146 -180 185 -76
37 -211 43 -290 14z"/>
<path d="M3808 1357 c-218 -81 -321 -314 -229 -521 24 -55 101 -139 157 -172
23 -14 73 -31 110 -39 173 -36 347 52 422 213 24 50 27 70 27 157 0 93 -2 105
-32 166 -39 79 -102 140 -181 177 -46 22 -74 27 -147 29 -57 2 -103 -2 -127
-10z"/>
<path d="M870 1313 c-94 -33 -164 -98 -209 -193 -21 -45 -26 -70 -26 -140 0
-76 3 -92 32 -151 99 -201 340 -266 521 -142 62 43 105 97 133 173 30 78 24
195 -15 273 -35 72 -119 149 -191 176 -68 25 -179 27 -245 4z"/>
<path d="M2355 740 c-121 -40 -220 -146 -251 -270 -63 -249 141 -488 399 -467
134 11 256 98 315 225 23 49 27 70 27 152 0 82 -4 103 -27 152 -83 178 -284
268 -463 208z"/>
</g>
</svg>
